<svg xmlns="http://www.w3.org/2000/svg" xmlns:svg="http://www.w3.org/2000/svg" id="svg2" width="747.395" height="668.38" version="1.1"><defs id="defs4"><marker style="overflow:visible" id="Arrow2Lend" orient="auto" refX="0" refY="0"><path style="font-size:12px;fill-rule:evenodd;stroke-width:.625;stroke-linejoin:round" id="path3863" d="M 8.7185878,4.0337352 -2.2072895,0.01601326 8.7185884,-4.0017078 c -1.7454984,2.3720609 -1.7354408,5.6174519 -6e-7,8.035443 z" transform="matrix(-1.1,0,0,-1.1,-1.1,0)"/></marker><marker style="overflow:visible" id="Arrow1Lend" orient="auto" refX="0" refY="0"><path style="fill-rule:evenodd;stroke:#000;stroke-width:1pt;marker-start:none" id="path3845" d="M 0,0 5,-5 -12.5,0 5,5 0,0 z" transform="matrix(-0.8,0,0,-0.8,-10,0)"/></marker><marker style="overflow:visible" id="DotL" orient="auto" refX="0" refY="0"><path style="fill-rule:evenodd;stroke:#000;stroke-width:1pt;marker-start:none;marker-end:none" id="path3904" d="m -2.5,-1 c 0,2.76 -2.24,5 -5,5 -2.76,0 -5,-2.24 -5,-5 0,-2.76 2.24,-5 5,-5 2.76,0 5,2.24 5,5 z" transform="matrix(0.8,0,0,0.8,5.92,0.8)"/></marker><marker style="overflow:visible" id="DotM" orient="auto" refX="0" refY="0"><path style="fill-rule:evenodd;stroke:#000;stroke-width:1pt;marker-start:none;marker-end:none" id="path3907" d="m -2.5,-1 c 0,2.76 -2.24,5 -5,5 -2.76,0 -5,-2.24 -5,-5 0,-2.76 2.24,-5 5,-5 2.76,0 5,2.24 5,5 z" transform="matrix(0.4,0,0,0.4,2.96,0.4)"/></marker></defs><metadata id="metadata7"/><g id="layer1" transform="translate(14.094325,-18.01669)"><rect id="rect2816" width="160.937" height="245.207" x="66.034" y="228.813" style="fill:#fff;fill-opacity:1;fill-rule:evenodd;stroke:#000;stroke-width:.9802236px;stroke-linecap:butt;stroke-linejoin:miter;stroke-opacity:1"/><rect id="rect3590" width="160.937" height="25.221" x="66.034" y="264.123" style="fill:#c8c8c8;fill-opacity:1;stroke:#000;stroke-width:.9802236;stroke-miterlimit:4;stroke-opacity:1;stroke-dasharray:none"/><rect id="rect2816-4" width="160.937" height="245.207" x="313.44" y="326.196" style="fill:#fff;fill-opacity:1;fill-rule:evenodd;stroke:#000;stroke-width:.9802236px;stroke-linecap:butt;stroke-linejoin:miter;stroke-opacity:1"/><rect id="rect3590-8" width="160.937" height="25.221" x="313.44" y="372.778" style="fill:#c8c8c8;fill-opacity:1;stroke:#000;stroke-width:.9802236;stroke-miterlimit:4;stroke-opacity:1;stroke-dasharray:none"/><path id="path3639" d="m 143.72184,274.66024 0,0.12759" style="fill:none;stroke:#000;stroke-width:.52072054px;stroke-linecap:butt;stroke-linejoin:miter;stroke-opacity:1"/><path id="path3655" d="m 146.50233,276.73389 247.40665,0 0,49.46188" style="fill:none;stroke:#000;stroke-width:1;stroke-linecap:butt;stroke-linejoin:miter;stroke-miterlimit:4;stroke-opacity:1;stroke-dasharray:none;marker-start:url(#DotL);marker-mid:none;marker-end:url(#Arrow2Lend)"/><path id="path5819" d="m 130,113.79075 c -14.16593,0 -25.66378,-11.45705 -25.71412,-25.622891" transform="matrix(1.0296089,0,0,0.75414426,-58.207645,76.554965)" style="fill:#fff;fill-opacity:1;stroke:#000;stroke-width:1.13484526;stroke-miterlimit:4;stroke-opacity:1;stroke-dasharray:none"/><path id="path5821" d="m 75.641535,162.36961 88.252185,0" style="fill:none;stroke:#000;stroke-width:1;stroke-linecap:butt;stroke-linejoin:miter;stroke-miterlimit:4;stroke-opacity:1;stroke-dasharray:none"/><path id="path5819-8" d="m 130,113.79075 c -14.16593,0 -25.66378,-11.45705 -25.71412,-25.622891" transform="matrix(-1.0296089,0,0,-0.75414426,297.74286,248.18425)" style="fill:#fff;fill-opacity:1;stroke:#000;stroke-width:1.13484526;stroke-miterlimit:4;stroke-opacity:1;stroke-dasharray:none"/><path id="path5819-7" d="m 130,113.79075 c -14.16593,0 -25.66378,-11.45705 -25.71412,-25.622891" transform="matrix(-1.0296089,0,0,0.75414426,438.94603,76.554965)" style="fill:#fff;fill-opacity:1;stroke:#000;stroke-width:1.13484526;stroke-miterlimit:4;stroke-opacity:1;stroke-dasharray:none"/><path id="path5821-6" d="m 305.09689,162.36961 -88.2522,0" style="fill:none;stroke:#000;stroke-width:1;stroke-linecap:butt;stroke-linejoin:miter;stroke-miterlimit:4;stroke-opacity:1;stroke-dasharray:none"/><path id="path5819-8-0" d="m 130,113.79075 c -14.16593,0 -25.66378,-11.45705 -25.71412,-25.622891" transform="matrix(1.0296089,0,0,-0.75414426,82.995526,248.18425)" style="fill:#fff;fill-opacity:1;stroke:#000;stroke-width:1.13484526;stroke-miterlimit:4;stroke-opacity:1;stroke-dasharray:none"/><rect id="rect7460" width="20.645" height="26.883" x="129.8" y="110.278" style="fill:#67abe5;fill-opacity:1;stroke:#000;stroke-width:.8481999;stroke-miterlimit:4;stroke-opacity:1;stroke-dasharray:none"/><rect id="rect7460-6" width="20.645" height="26.883" x="150.445" y="110.278" style="fill:#67abe5;fill-opacity:1;stroke:#000;stroke-width:.8481999;stroke-miterlimit:4;stroke-opacity:1;stroke-dasharray:none"/><rect id="rect7460-5" width="20.645" height="26.883" x="171.09" y="110.278" style="fill:#67abe5;fill-opacity:1;stroke:#000;stroke-width:.8481999;stroke-miterlimit:4;stroke-opacity:1;stroke-dasharray:none"/><rect id="rect7460-3" width="20.645" height="26.883" x="191.734" y="110.278" style="fill:#67abe5;fill-opacity:1;stroke:#000;stroke-width:.8481999;stroke-miterlimit:4;stroke-opacity:1;stroke-dasharray:none"/><rect id="rect7460-7" width="20.645" height="26.883" x="212.379" y="110.278" style="fill:#67abe5;fill-opacity:1;stroke:#000;stroke-width:.8481999;stroke-miterlimit:4;stroke-opacity:1;stroke-dasharray:none"/><rect id="rect7460-56" width="20.645" height="26.883" x="233.024" y="110.278" style="fill:#67abe5;fill-opacity:1;stroke:#000;stroke-width:.8481999;stroke-miterlimit:4;stroke-opacity:1;stroke-dasharray:none"/><rect id="rect7460-60" width="20.645" height="26.883" x="253.668" y="110.278" style="fill:#67ace5;fill-opacity:1;stroke:#000;stroke-width:.8481999;stroke-miterlimit:4;stroke-opacity:1;stroke-dasharray:none"/><rect id="rect7460-9" width="20.645" height="26.883" x="274.313" y="110.278" style="fill:#67ace5;fill-opacity:1;stroke:#000;stroke-width:.8481999;stroke-miterlimit:4;stroke-opacity:1;stroke-dasharray:none"/><rect id="rect7460-63" width="20.645" height="26.883" x="294.958" y="110.278" style="fill:#67ace5;fill-opacity:1;stroke:#000;stroke-width:.8481999;stroke-miterlimit:4;stroke-opacity:1;stroke-dasharray:none"/><rect id="rect7460-68" width="20.645" height="26.883" x="315.603" y="110.278" style="fill:#67ace5;fill-opacity:1;stroke:#000;stroke-width:.8481999;stroke-miterlimit:4;stroke-opacity:1;stroke-dasharray:none"/><rect id="rect7460-36" width="20.645" height="26.883" x="336.247" y="110.278" style="fill:#dc5e5e;fill-opacity:1;stroke:#000;stroke-width:.8481999;stroke-miterlimit:4;stroke-opacity:1;stroke-dasharray:none"/><rect id="rect7460-4" width="20.645" height="26.883" x="356.892" y="110.278" style="fill:#dc5e5e;fill-opacity:1;stroke:#000;stroke-width:.8481999;stroke-miterlimit:4;stroke-opacity:1;stroke-dasharray:none"/><rect id="rect7460-0" width="20.645" height="26.883" x="377.537" y="110.278" style="fill:#dc5e5e;fill-opacity:1;stroke:#000;stroke-width:.8481999;stroke-miterlimit:4;stroke-opacity:1;stroke-dasharray:none"/><rect id="rect7460-45" width="20.645" height="26.883" x="398.181" y="-137.161" transform="scale(1,-1)" style="fill:#dc5e5e;fill-opacity:1;stroke:#000;stroke-width:.8481999;stroke-miterlimit:4;stroke-opacity:1;stroke-dasharray:none"/><rect id="rect7460-42" width="20.645" height="26.883" x="418.826" y="110.278" style="fill:#dc5e5e;fill-opacity:1;stroke:#000;stroke-width:.8481999;stroke-miterlimit:4;stroke-opacity:1;stroke-dasharray:none"/><rect id="rect7460-05" width="20.645" height="26.883" x="439.471" y="110.278" style="fill:#dc5e5e;fill-opacity:1;stroke:#000;stroke-width:.8481999;stroke-miterlimit:4;stroke-opacity:1;stroke-dasharray:none"/><rect id="rect7460-47" width="20.645" height="26.883" x="460.115" y="110.278" style="fill:#dc5e5e;fill-opacity:1;stroke:#000;stroke-width:.8481999;stroke-miterlimit:4;stroke-opacity:1;stroke-dasharray:none"/><rect id="rect7460-30" width="20.645" height="26.883" x="480.76" y="110.278" style="fill:#dc5e5e;fill-opacity:1;stroke:#000;stroke-width:.8481999;stroke-miterlimit:4;stroke-opacity:1;stroke-dasharray:none"/><rect id="rect7460-65" width="20.645" height="26.883" x="501.405" y="110.278" style="fill:#dc5e5e;fill-opacity:1;stroke:#000;stroke-width:.8481999;stroke-miterlimit:4;stroke-opacity:1;stroke-dasharray:none"/><rect id="rect7460-96" width="20.645" height="26.883" x="522.049" y="110.278" style="fill:#dc5e5e;fill-opacity:1;stroke:#000;stroke-width:.8481999;stroke-miterlimit:4;stroke-opacity:1;stroke-dasharray:none"/><rect id="rect7460-604" width="20.645" height="26.883" x="542.694" y="110.278" style="fill:#50b872;fill-opacity:1;stroke:#000;stroke-width:.8481999;stroke-miterlimit:4;stroke-opacity:1;stroke-dasharray:none"/><rect id="rect7460-79" width="20.645" height="26.883" x="563.339" y="110.278" style="fill:#50b872;fill-opacity:1;stroke:#000;stroke-width:.8481999;stroke-miterlimit:4;stroke-opacity:1;stroke-dasharray:none"/><rect id="rect7460-01" width="20.645" height="26.883" x="583.983" y="110.278" style="fill:#50b872;fill-opacity:1;stroke:#000;stroke-width:.8481999;stroke-miterlimit:4;stroke-opacity:1;stroke-dasharray:none"/><path id="path5819-4" d="m 130,113.79075 c -14.16593,0 -25.66378,-11.45705 -25.71412,-25.622891" transform="matrix(0.56945878,0,0,0.75414426,487.54164,76.554965)" style="fill:#fff;fill-opacity:1;stroke:#000;stroke-width:1.5259546;stroke-miterlimit:4;stroke-opacity:1;stroke-dasharray:none"/><path id="path5821-8" d="m 561.5713,162.36961 48.81074,0" style="fill:none;stroke:#000;stroke-width:.99999994;stroke-linecap:butt;stroke-linejoin:miter;stroke-miterlimit:4;stroke-opacity:1;stroke-dasharray:none"/><path id="path5819-8-3" d="m 130,113.79075 c -14.16593,0 -25.66378,-11.45705 -25.71412,-25.622891" transform="matrix(-0.56945878,0,0,-0.75414426,684.41168,248.18425)" style="fill:#fff;fill-opacity:1;stroke:#000;stroke-width:1.5259546;stroke-miterlimit:4;stroke-opacity:1;stroke-dasharray:none"/><path id="path5819-7-6" d="m 130,113.79075 c -14.16593,0 -25.66378,-11.45705 -25.71412,-25.622891" transform="matrix(-0.56945878,0,0,0.75414426,762.50869,76.554965)" style="fill:#fff;fill-opacity:1;stroke:#000;stroke-width:1.5259546;stroke-miterlimit:4;stroke-opacity:1;stroke-dasharray:none"/><path id="path5821-6-4" d="m 688.47906,162.36961 -48.81076,0" style="fill:none;stroke:#000;stroke-width:.99999994;stroke-linecap:butt;stroke-linejoin:miter;stroke-miterlimit:4;stroke-opacity:1;stroke-dasharray:none"/><path id="path5819-8-0-6" d="m 130,113.79075 c -14.16593,0 -25.66378,-11.45705 -25.71412,-25.622891" transform="matrix(0.56945878,0,0,-0.75414426,565.63866,248.18425)" style="fill:#fff;fill-opacity:1;stroke:#000;stroke-width:1.5259546;stroke-miterlimit:4;stroke-opacity:1;stroke-dasharray:none"/><rect id="rect7460-01-6" width="20.645" height="26.883" x="604.628" y="110.278" style="fill:#50b872;fill-opacity:1;stroke:#000;stroke-width:.8481999;stroke-miterlimit:4;stroke-opacity:1;stroke-dasharray:none"/><rect id="rect7460-01-0" width="20.645" height="26.883" x="625.273" y="110.278" style="fill:#50b872;fill-opacity:1;stroke:#000;stroke-width:.8481999;stroke-miterlimit:4;stroke-opacity:1;stroke-dasharray:none"/><rect id="rect7460-01-2" width="20.645" height="26.883" x="645.917" y="110.278" style="fill:#50b872;fill-opacity:1;stroke:#000;stroke-width:.8481999;stroke-miterlimit:4;stroke-opacity:1;stroke-dasharray:none"/><rect id="rect7460-01-4" width="20.645" height="26.883" x="666.562" y="110.278" style="fill:#50b872;fill-opacity:1;stroke:#000;stroke-width:.8481999;stroke-miterlimit:4;stroke-opacity:1;stroke-dasharray:none"/><rect id="rect7460-01-44" width="20.645" height="26.883" x="687.207" y="110.278" style="fill:#50b872;fill-opacity:1;stroke:#000;stroke-width:.8481999;stroke-miterlimit:4;stroke-opacity:1;stroke-dasharray:none"/><rect id="rect7460-01-1" width="20.645" height="26.883" x="109.156" y="110.278" style="fill:#67abe5;fill-opacity:1;stroke:#000;stroke-width:.8481999;stroke-miterlimit:4;stroke-opacity:1;stroke-dasharray:none"/><rect id="rect7460-01-61" width="20.645" height="26.883" x="88.511" y="110.278" style="fill:#67abe5;fill-opacity:1;stroke:#000;stroke-width:.8481999;stroke-miterlimit:4;stroke-opacity:1;stroke-dasharray:none"/><rect id="rect7460-01-19" width="20.645" height="26.883" x="67.866" y="110.278" style="fill:#67abe5;fill-opacity:1;stroke:#000;stroke-width:.8481999;stroke-miterlimit:4;stroke-opacity:1;stroke-dasharray:none"/><rect id="rect7460-01-46" width="20.645" height="26.883" x="47.222" y="110.278" style="fill:#67abe5;fill-opacity:1;stroke:#000;stroke-width:.8481999;stroke-miterlimit:4;stroke-opacity:1;stroke-dasharray:none"/><path id="path5819-46" d="m 130,113.79075 c -14.16593,0 -25.66378,-11.45705 -25.71412,-25.622891" transform="matrix(0.70183468,0,0,0.75414426,269.29458,76.554965)" style="fill:#fff;fill-opacity:1;stroke:#000;stroke-width:1.37453377;stroke-miterlimit:4;stroke-opacity:1;stroke-dasharray:none"/><path id="path5821-2" d="m 360.53311,162.36961 60.15724,0" style="fill:none;stroke:#000;stroke-width:1;stroke-linecap:butt;stroke-linejoin:miter;stroke-miterlimit:4;stroke-opacity:1;stroke-dasharray:none"/><path id="path5819-8-5" d="m 130,113.79075 c -14.16593,0 -25.66378,-11.45705 -25.71412,-25.622891" transform="matrix(-0.70183468,0,0,-0.75414426,511.92887,248.18425)" style="fill:#fff;fill-opacity:1;stroke:#000;stroke-width:1.37453377;stroke-miterlimit:4;stroke-opacity:1;stroke-dasharray:none"/><path id="path5819-7-9" d="m 130,113.79075 c -14.16593,0 -25.66378,-11.45705 -25.71412,-25.622891" transform="matrix(-0.70183468,0,0,0.75414426,608.18024,76.554965)" style="fill:#fff;fill-opacity:1;stroke:#000;stroke-width:1.37453377;stroke-miterlimit:4;stroke-opacity:1;stroke-dasharray:none"/><path id="path5821-6-1" d="m 516.94174,162.36961 -60.15726,0" style="fill:none;stroke:#000;stroke-width:1;stroke-linecap:butt;stroke-linejoin:miter;stroke-miterlimit:4;stroke-opacity:1;stroke-dasharray:none"/><path id="path5819-8-0-8" d="m 130,113.79075 c -14.16593,0 -25.66378,-11.45705 -25.71412,-25.622891" transform="matrix(0.70183468,0,0,-0.75414426,365.54598,248.18425)" style="fill:#fff;fill-opacity:1;stroke:#000;stroke-width:1.37453377;stroke-miterlimit:4;stroke-opacity:1;stroke-dasharray:none"/><text id="text7908" x="3.535" y="238.362" transform="scale(0.99938188,1.0006185)" xml:space="preserve" style="font-size:16px;font-style:normal;font-variant:normal;font-weight:400;font-stretch:normal;text-align:start;line-height:125%;writing-mode:lr-tb;text-anchor:start;fill:#000;fill-opacity:1;stroke:none;font-family:FreeMono;-inkscape-font-specification:FreeMono"><tspan id="tspan7910" x="3.535" y="238.362">0x0000</tspan></text><text id="text7912" x="3.535" y="273.909" transform="scale(0.99938188,1.0006185)" xml:space="preserve" style="font-size:16px;font-style:normal;font-variant:normal;font-weight:400;font-stretch:normal;text-align:start;line-height:125%;writing-mode:lr-tb;text-anchor:start;fill:#000;fill-opacity:1;stroke:none;font-family:FreeMono;-inkscape-font-specification:FreeMono"><tspan id="tspan7916" x="3.535" y="273.909">0x0020</tspan></text><text id="text7932" x="3.007" y="471.893" transform="scale(0.99938188,1.0006185)" xml:space="preserve" style="font-size:16px;font-style:normal;font-variant:normal;font-weight:400;font-stretch:normal;text-align:start;line-height:125%;writing-mode:lr-tb;text-anchor:start;fill:#000;fill-opacity:1;stroke:none;font-family:FreeMono;-inkscape-font-specification:FreeMono"><tspan id="tspan7934" x="3.007" y="471.893">0x3FFF</tspan></text><path id="path7936" d="m 190.36921,181.69297 -199.9635349,0 0,114.29279" style="fill:none;stroke:#000;stroke-width:1;stroke-linecap:butt;stroke-linejoin:miter;stroke-miterlimit:4;stroke-opacity:1;stroke-dasharray:none;marker-start:none;marker-end:url(#Arrow1Lend)"/><text id="text8318" x="260.093" y="335.417" transform="scale(0.99938188,1.0006185)" xml:space="preserve" style="font-size:16px;font-style:normal;font-variant:normal;font-weight:400;font-stretch:normal;text-align:start;line-height:125%;writing-mode:lr-tb;text-anchor:start;fill:#000;fill-opacity:1;stroke:none;font-family:FreeMono;-inkscape-font-specification:FreeMono"><tspan id="tspan8320" x="260.093" y="335.417">0x000</tspan></text><text id="text8322" x="260.237" y="390.293" transform="scale(0.99938188,1.0006185)" xml:space="preserve" style="font-size:16px;font-style:normal;font-variant:normal;font-weight:400;font-stretch:normal;text-align:start;line-height:125%;writing-mode:lr-tb;text-anchor:start;fill:#000;fill-opacity:1;stroke:none;font-family:FreeMono;-inkscape-font-specification:FreeMono"><tspan id="tspan8326" x="260.237" y="390.293">0x062</tspan></text><text id="text8330" x="259.565" y="568.831" transform="scale(0.99938188,1.0006185)" xml:space="preserve" style="font-size:16px;font-style:normal;font-variant:normal;font-weight:400;font-stretch:normal;text-align:start;line-height:125%;writing-mode:lr-tb;text-anchor:start;fill:#000;fill-opacity:1;stroke:none;font-family:FreeMono;-inkscape-font-specification:FreeMono"><tspan id="tspan8332" x="259.565" y="568.831">0x3FF</tspan></text><path id="path5819-4-3" d="m 130,113.79075 c -14.16593,0 -25.66378,-11.45705 -25.71412,-25.622891" transform="matrix(-2.3784149,0,0,-0.92194119,952.46345,170.3895)" style="fill:#fff;fill-opacity:1;stroke:#000;stroke-width:.67531216;stroke-miterlimit:4;stroke-opacity:1;stroke-dasharray:none"/><path id="path5821-8-7" d="m 643.26948,65.481115 -203.86412,0" style="fill:none;stroke:#000;stroke-width:1;stroke-linecap:butt;stroke-linejoin:miter;stroke-miterlimit:4;stroke-opacity:1;stroke-dasharray:none"/><path id="path5819-8-3-3" d="m 130,113.79075 c -14.16593,0 -25.66378,-11.45705 -25.71412,-25.622891" transform="matrix(2.3784149,0,0,0.92194119,130.21148,-39.427261)" style="fill:#fff;fill-opacity:1;stroke:#000;stroke-width:.67531216;stroke-miterlimit:4;stroke-opacity:1;stroke-dasharray:none"/><path id="path5819-7-6-5" d="m 130,113.79075 c -14.16593,0 -25.66378,-11.45705 -25.71412,-25.622891" transform="matrix(2.3784149,0,0,-0.92194119,-195.97034,170.3895)" style="fill:#fff;fill-opacity:1;stroke:#000;stroke-width:.67531216;stroke-miterlimit:4;stroke-opacity:1;stroke-dasharray:none"/><path id="path5821-6-4-7" d="m 113.22354,65.481115 203.86414,0" style="fill:none;stroke:#000;stroke-width:1;stroke-linecap:butt;stroke-linejoin:miter;stroke-miterlimit:4;stroke-opacity:1;stroke-dasharray:none"/><path id="path5819-8-0-6-5" d="m 130,113.79075 c -14.16593,0 -25.66378,-11.45705 -25.71412,-25.622891" transform="matrix(-2.3784149,0,0,0.92194119,626.28162,-39.427261)" style="fill:#fff;fill-opacity:1;stroke:#000;stroke-width:.67531216;stroke-miterlimit:4;stroke-opacity:1;stroke-dasharray:none"/><text id="text8376" x="334.921" y="28.191" transform="scale(0.99938185,1.0006185)" xml:space="preserve" style="font-size:13.72313023px;font-style:normal;font-weight:400;fill:#000;fill-opacity:1;stroke:none;font-family:Bitstream Vera Sans"><tspan id="tspan8378" x="334.921" y="28.191">0x00806231</tspan></text><text id="text8380" x="127.835" y="96.632" transform="scale(0.99938185,1.0006185)" xml:space="preserve" style="font-size:13.72313023px;font-style:normal;font-weight:400;fill:#000;fill-opacity:1;stroke:none;font-family:Bitstream Vera Sans"><tspan id="tspan8384" x="127.835" y="96.632">0x0020</tspan></text><text id="text8388" x="333.812" y="95.602" transform="scale(0.99938185,1.0006185)" xml:space="preserve" style="font-size:13.72313023px;font-style:normal;font-weight:400;fill:#000;fill-opacity:1;stroke:none;font-family:Bitstream Vera Sans"><tspan id="tspan8390" x="333.812" y="95.602">0x062</tspan></text><text id="text8392" x="562.482" y="96.533" transform="scale(0.99938185,1.0006185)" xml:space="preserve" style="font-size:13.72313023px;font-style:normal;font-weight:400;fill:#000;fill-opacity:1;stroke:none;font-family:Bitstream Vera Sans"><tspan id="tspan8394" x="562.482" y="96.533">0x31</tspan></text><path id="path8594" d="m 438.73741,181.69296 -191.23476,0 0,203.27465" style="fill:none;stroke:#000;stroke-width:1;stroke-linecap:butt;stroke-linejoin:miter;stroke-miterlimit:4;stroke-opacity:1;stroke-dasharray:none;marker-start:none;marker-end:url(#Arrow1Lend)"/><rect id="rect2816-4-4" width="160.937" height="245.207" x="571.873" y="440.7" style="fill:#fff;fill-opacity:1;fill-rule:evenodd;stroke:#000;stroke-width:.9802236px;stroke-linecap:butt;stroke-linejoin:miter;stroke-opacity:1"/><rect id="rect3590-8-8" width="160.937" height="25.221" x="571.873" y="487.282" style="fill:#c8c8c8;fill-opacity:1;stroke:#000;stroke-width:.9802236;stroke-miterlimit:4;stroke-opacity:1;stroke-dasharray:none"/><text id="text8318-4" x="524.69" y="449.85" transform="scale(0.99938188,1.0006185)" xml:space="preserve" style="font-size:16px;font-style:normal;font-variant:normal;font-weight:400;font-stretch:normal;text-align:start;line-height:125%;writing-mode:lr-tb;text-anchor:start;fill:#000;fill-opacity:1;stroke:none;font-family:FreeMono;-inkscape-font-specification:FreeMono"><tspan id="tspan8320-4" x="524.69" y="449.85">0x00</tspan></text><text id="text8322-8" x="524.69" y="504.094" transform="scale(0.99938188,1.0006185)" xml:space="preserve" style="font-size:16px;font-style:normal;font-variant:normal;font-weight:400;font-stretch:normal;text-align:start;line-height:125%;writing-mode:lr-tb;text-anchor:start;fill:#000;fill-opacity:1;stroke:none;font-family:FreeMono;-inkscape-font-specification:FreeMono"><tspan id="tspan8326-1" x="524.69" y="504.094">0x31</tspan></text><text id="text8330-2" x="524.162" y="681.265" transform="scale(0.99938188,1.0006185)" xml:space="preserve" style="font-size:16px;font-style:normal;font-variant:normal;font-weight:400;font-stretch:normal;text-align:start;line-height:125%;writing-mode:lr-tb;text-anchor:start;fill:#000;fill-opacity:1;stroke:none;font-family:FreeMono;-inkscape-font-specification:FreeMono"><tspan id="tspan8332-3" x="524.162" y="681.265">0xFF</tspan></text><path id="path9768" d="m 394.40303,385.88377 257.93865,0 0,54.8158" style="fill:none;stroke:#000;stroke-width:1;stroke-linecap:butt;stroke-linejoin:miter;stroke-miterlimit:4;stroke-opacity:1;stroke-dasharray:none;marker-start:url(#DotL);marker-end:url(#Arrow1Lend)"/><path id="path10720" d="m 625.0252,181.69296 -124.2035,0 0,314.82423" style="fill:none;stroke:#000;stroke-width:1;stroke-linecap:butt;stroke-linejoin:miter;stroke-miterlimit:4;stroke-opacity:1;stroke-dasharray:none;marker-start:none;marker-end:url(#Arrow1Lend)"/><flowRoot style="font-size:14px;font-style:normal;font-weight:400;fill:#000;fill-opacity:1;stroke:none;font-family:Bitstream Vera Sans;-inkscape-font-specification:Bitstream Charter" id="flowRoot3759" transform="translate(4.6968237,18.01669)" xml:space="preserve"><flowRegion id="flowRegion3761"><rect id="rect3763" width="67.68" height="14.142" x="155.563" y="125.372"/></flowRegion><flowPara id="flowPara3765">14 14</flowPara></flowRoot><text id="text3775" x="167.184" y="154.171" xml:space="preserve" style="font-size:14px;font-style:normal;font-weight:400;fill:#000;fill-opacity:1;stroke:none;font-family:Bitstream Vera Sans;-inkscape-font-specification:Bitstream Charter"><tspan id="tspan3777" x="167.184" y="154.171">14 bits</tspan></text><text id="text3779" x="413.809" y="154.399" xml:space="preserve" style="font-size:14px;font-style:normal;font-weight:400;fill:#000;fill-opacity:1;stroke:none;font-family:Bitstream Vera Sans;-inkscape-font-specification:Bitstream Charter"><tspan id="tspan3781" x="413.809" y="154.399">10 bits</tspan></text><text id="text3783" x="605.595" y="153.47" xml:space="preserve" style="font-size:14px;font-style:normal;font-weight:400;fill:#000;fill-opacity:1;stroke:none;font-family:Bitstream Vera Sans;-inkscape-font-specification:Bitstream Charter"><tspan id="tspan3785" x="605.595" y="153.47">8 bits</tspan></text></g></svg>