<svg xmlns="http://www.w3.org/2000/svg" xmlns:svg="http://www.w3.org/2000/svg" id="svg2" width="718.124" height="564.702" version="1.1"><defs id="defs4"><marker style="overflow:visible" id="Arrow2Lend" orient="auto" refX="0" refY="0"><path style="font-size:12px;fill-rule:evenodd;stroke-width:.625;stroke-linejoin:round" id="path3863" d="M 8.7185878,4.0337352 -2.2072895,0.01601326 8.7185884,-4.0017078 c -1.7454984,2.3720609 -1.7354408,5.6174519 -6e-7,8.035443 z" transform="matrix(-1.1,0,0,-1.1,-1.1,0)"/></marker><marker style="overflow:visible" id="Arrow1Lend" orient="auto" refX="0" refY="0"><path style="fill-rule:evenodd;stroke:#000;stroke-width:1pt;marker-start:none" id="path3845" d="M 0,0 5,-5 -12.5,0 5,5 0,0 z" transform="matrix(-0.8,0,0,-0.8,-10,0)"/></marker><marker style="overflow:visible" id="DotL" orient="auto" refX="0" refY="0"><path style="fill-rule:evenodd;stroke:#000;stroke-width:1pt;marker-start:none;marker-end:none" id="path3904" d="m -2.5,-1 c 0,2.76 -2.24,5 -5,5 -2.76,0 -5,-2.24 -5,-5 0,-2.76 2.24,-5 5,-5 2.76,0 5,2.24 5,5 z" transform="matrix(0.8,0,0,0.8,5.92,0.8)"/></marker><marker style="overflow:visible" id="DotM" orient="auto" refX="0" refY="0"><path style="fill-rule:evenodd;stroke:#000;stroke-width:1pt;marker-start:none;marker-end:none" id="path3907" d="m -2.5,-1 c 0,2.76 -2.24,5 -5,5 -2.76,0 -5,-2.24 -5,-5 0,-2.76 2.24,-5 5,-5 2.76,0 5,2.24 5,5 z" transform="matrix(0.4,0,0,0.4,2.96,0.4)"/></marker></defs><metadata id="metadata7"/><g id="layer1" transform="translate(-4.7833854,-18.01696)"><rect id="rect2816" width="164.286" height="250" x="67.303" y="232.934" style="fill:#fff;fill-opacity:1;fill-rule:evenodd;stroke:#000;stroke-width:1px;stroke-linecap:butt;stroke-linejoin:miter;stroke-opacity:1"/><rect id="rect3590" width="164.286" height="25.714" x="67.303" y="268.934" style="fill:#c8c8c8;fill-opacity:1;stroke:#000;stroke-width:1;stroke-miterlimit:4;stroke-opacity:1;stroke-dasharray:none"/><rect id="rect2816-4" width="164.286" height="250" x="319.857" y="332.219" style="fill:#fff;fill-opacity:1;fill-rule:evenodd;stroke:#000;stroke-width:1px;stroke-linecap:butt;stroke-linejoin:miter;stroke-opacity:1"/><rect id="rect3590-8" width="164.286" height="25.714" x="319.857" y="444.362" style="fill:#c8c8c8;fill-opacity:1;stroke:#000;stroke-width:1;stroke-miterlimit:4;stroke-opacity:1;stroke-dasharray:none"/><path id="path3639" d="m 146.60739,279.67655 0,0.13009" style="fill:none;stroke:#000;stroke-width:.53122628px;stroke-linecap:butt;stroke-linejoin:miter;stroke-opacity:1"/><path id="path3655" d="m 149.44573,281.79073 252.55429,0 0,50.4286" style="fill:none;stroke:#000;stroke-width:1;stroke-linecap:butt;stroke-linejoin:miter;stroke-miterlimit:4;stroke-opacity:1;stroke-dasharray:none;marker-start:url(#DotL);marker-mid:none;marker-end:url(#Arrow2Lend)"/><rect id="rect5417" width="128.571" height="115.714" x="529.361" y="399.019" style="fill:#fff;fill-opacity:1;stroke:#000;stroke-width:1;stroke-miterlimit:4;stroke-opacity:1;stroke-dasharray:none"/><path id="path5419" d="m 398.54255,457.21933 131.53888,0" style="fill:none;stroke:#000;stroke-width:1;stroke-linecap:butt;stroke-linejoin:miter;stroke-miterlimit:4;stroke-opacity:1;stroke-dasharray:none;marker-start:url(#DotL);marker-end:url(#Arrow2Lend)"/><text id="text5801" x="542.594" y="463.84" xml:space="preserve" style="font-size:24px;font-style:normal;font-weight:400;fill:#000;fill-opacity:1;stroke:none;font-family:Bitstream Vera Sans"><tspan id="tspan5805" x="542.594" y="463.84">4k Page</tspan></text><path id="path5819" d="m 130,113.79075 c -14.16593,0 -25.66378,-11.45705 -25.71412,-25.622891" transform="matrix(0.74651321,0,0,0.76888385,-27.766583,77.699353)" style="fill:#fff;fill-opacity:1;stroke:#000;stroke-width:1.31992996;stroke-miterlimit:4;stroke-opacity:1;stroke-dasharray:none"/><path id="path5821" d="m 69.280148,165.19122 63.986842,0" style="fill:none;stroke:#000;stroke-width:1;stroke-linecap:butt;stroke-linejoin:miter;stroke-miterlimit:4;stroke-opacity:1;stroke-dasharray:none"/><path id="path5819-8" d="m 130,113.79075 c -14.16593,0 -25.66378,-11.45705 -25.71412,-25.622891" transform="matrix(-0.74651321,0,0,-0.76888385,230.31369,252.68309)" style="fill:#fff;fill-opacity:1;stroke:#000;stroke-width:1.31992996;stroke-miterlimit:4;stroke-opacity:1;stroke-dasharray:none"/><path id="path5819-7" d="m 130,113.79075 c -14.16593,0 -25.66378,-11.45705 -25.71412,-25.622891" transform="matrix(-0.74651321,0,0,0.76888385,332.6924,77.699353)" style="fill:#fff;fill-opacity:1;stroke:#000;stroke-width:1.31992996;stroke-miterlimit:4;stroke-opacity:1;stroke-dasharray:none"/><path id="path5821-6" d="m 235.6457,165.19122 -63.98685,0" style="fill:none;stroke:#000;stroke-width:1;stroke-linecap:butt;stroke-linejoin:miter;stroke-miterlimit:4;stroke-opacity:1;stroke-dasharray:none"/><path id="path5819-8-0" d="m 130,113.79075 c -14.16593,0 -25.66378,-11.45705 -25.71412,-25.622891" transform="matrix(0.74651321,0,0,-0.76888385,74.612126,252.68309)" style="fill:#fff;fill-opacity:1;stroke:#000;stroke-width:1.31992996;stroke-miterlimit:4;stroke-opacity:1;stroke-dasharray:none"/><rect id="rect7460" width="21.074" height="27.409" x="132.396" y="112.081" style="fill:#68abe5;fill-opacity:1;stroke:#000;stroke-width:.8653127;stroke-miterlimit:4;stroke-opacity:1;stroke-dasharray:none"/><rect id="rect7460-6" width="21.074" height="27.409" x="153.47" y="112.081" style="fill:#68abe5;fill-opacity:1;stroke:#000;stroke-width:.8653127;stroke-miterlimit:4;stroke-opacity:1;stroke-dasharray:none"/><rect id="rect7460-5" width="21.074" height="27.409" x="174.545" y="112.081" style="fill:#68abe5;fill-opacity:1;stroke:#000;stroke-width:.8653127;stroke-miterlimit:4;stroke-opacity:1;stroke-dasharray:none"/><rect id="rect7460-3" width="21.074" height="27.409" x="195.619" y="112.081" style="fill:#68abe5;fill-opacity:1;stroke:#000;stroke-width:.8653127;stroke-miterlimit:4;stroke-opacity:1;stroke-dasharray:none"/><rect id="rect7460-7" width="21.074" height="27.409" x="216.693" y="112.081" style="fill:#68abe5;fill-opacity:1;stroke:#000;stroke-width:.8653127;stroke-miterlimit:4;stroke-opacity:1;stroke-dasharray:none"/><rect id="rect7460-56" width="21.074" height="27.409" x="237.767" y="112.081" style="fill:#68abe5;fill-opacity:1;stroke:#000;stroke-width:.8653127;stroke-miterlimit:4;stroke-opacity:1;stroke-dasharray:none"/><rect id="rect7460-60" width="21.074" height="27.409" x="258.842" y="112.081" style="fill:#dc5e5e;fill-opacity:1;stroke:#000;stroke-width:.8653127;stroke-miterlimit:4;stroke-opacity:1;stroke-dasharray:none"/><rect id="rect7460-9" width="21.074" height="27.409" x="279.916" y="112.081" style="fill:#dc5e5e;fill-opacity:1;stroke:#000;stroke-width:.8653127;stroke-miterlimit:4;stroke-opacity:1;stroke-dasharray:none"/><rect id="rect7460-63" width="21.074" height="27.409" x="300.99" y="112.081" style="fill:#dc5e5e;fill-opacity:1;stroke:#000;stroke-width:.8653127;stroke-miterlimit:4;stroke-opacity:1;stroke-dasharray:none"/><rect id="rect7460-68" width="21.074" height="27.409" x="322.064" y="112.081" style="fill:#dc5e5e;fill-opacity:1;stroke:#000;stroke-width:.8653127;stroke-miterlimit:4;stroke-opacity:1;stroke-dasharray:none"/><rect id="rect7460-36" width="21.074" height="27.409" x="343.139" y="112.081" style="fill:#dc5e5e;fill-opacity:1;stroke:#000;stroke-width:.8653127;stroke-miterlimit:4;stroke-opacity:1;stroke-dasharray:none"/><rect id="rect7460-4" width="21.074" height="27.409" x="364.213" y="112.081" style="fill:#dc5e5e;fill-opacity:1;stroke:#000;stroke-width:.8653127;stroke-miterlimit:4;stroke-opacity:1;stroke-dasharray:none"/><rect id="rect7460-0" width="21.074" height="27.409" x="385.287" y="112.081" style="fill:#dc5e5e;fill-opacity:1;stroke:#000;stroke-width:.8653127;stroke-miterlimit:4;stroke-opacity:1;stroke-dasharray:none"/><rect id="rect7460-45" width="21.074" height="27.409" x="406.361" y="-139.49" transform="scale(1,-1)" style="fill:#dc5e5e;fill-opacity:1;stroke:#000;stroke-width:.8653127;stroke-miterlimit:4;stroke-opacity:1;stroke-dasharray:none"/><rect id="rect7460-42" width="21.074" height="27.409" x="427.435" y="112.081" style="fill:#dc5e5e;fill-opacity:1;stroke:#000;stroke-width:.8653127;stroke-miterlimit:4;stroke-opacity:1;stroke-dasharray:none"/><rect id="rect7460-05" width="21.074" height="27.409" x="448.51" y="112.081" style="fill:#dc5e5e;fill-opacity:1;stroke:#000;stroke-width:.8653127;stroke-miterlimit:4;stroke-opacity:1;stroke-dasharray:none"/><rect id="rect7460-47" width="21.074" height="27.409" x="469.584" y="112.081" style="fill:#4fb871;fill-opacity:1;stroke:#000;stroke-width:.8653127;stroke-miterlimit:4;stroke-opacity:1;stroke-dasharray:none"/><rect id="rect7460-30" width="21.074" height="27.409" x="490.658" y="112.081" style="fill:#4fb871;fill-opacity:1;stroke:#000;stroke-width:.8653127;stroke-miterlimit:4;stroke-opacity:1;stroke-dasharray:none"/><rect id="rect7460-65" width="21.074" height="27.409" x="511.732" y="112.081" style="fill:#4fb871;fill-opacity:1;stroke:#000;stroke-width:.8653127;stroke-miterlimit:4;stroke-opacity:1;stroke-dasharray:none"/><rect id="rect7460-96" width="21.074" height="27.409" x="532.807" y="112.081" style="fill:#4fb871;fill-opacity:1;stroke:#000;stroke-width:.8653127;stroke-miterlimit:4;stroke-opacity:1;stroke-dasharray:none"/><rect id="rect7460-604" width="21.074" height="27.409" x="553.881" y="112.081" style="fill:#4fb871;fill-opacity:1;stroke:#000;stroke-width:.8653127;stroke-miterlimit:4;stroke-opacity:1;stroke-dasharray:none"/><rect id="rect7460-79" width="21.074" height="27.409" x="574.955" y="112.081" style="fill:#4fb871;fill-opacity:1;stroke:#000;stroke-width:.8653127;stroke-miterlimit:4;stroke-opacity:1;stroke-dasharray:none"/><rect id="rect7460-01" width="21.074" height="27.409" x="596.029" y="112.081" style="fill:#4fb871;fill-opacity:1;stroke:#000;stroke-width:.8653127;stroke-miterlimit:4;stroke-opacity:1;stroke-dasharray:none"/><path id="path5819-4" d="m 130,113.79075 c -14.16593,0 -25.66378,-11.45705 -25.71412,-25.622891" transform="matrix(0.88958484,0,0,0.76888385,380.87589,77.699353)" style="fill:#fff;fill-opacity:1;stroke:#000;stroke-width:1.20913815;stroke-miterlimit:4;stroke-opacity:1;stroke-dasharray:none"/><path id="path5821-8" d="m 496.52193,165.19122 76.25013,0" style="fill:none;stroke:#000;stroke-width:1;stroke-linecap:butt;stroke-linejoin:miter;stroke-miterlimit:4;stroke-opacity:1;stroke-dasharray:none"/><path id="path5819-8-3" d="m 130,113.79075 c -14.16593,0 -25.66378,-11.45705 -25.71412,-25.622891" transform="matrix(-0.88958484,0,0,-0.76888385,688.41807,252.68309)" style="fill:#fff;fill-opacity:1;stroke:#000;stroke-width:1.20913815;stroke-miterlimit:4;stroke-opacity:1;stroke-dasharray:none"/><path id="path5819-7-6" d="m 130,113.79075 c -14.16593,0 -25.66378,-11.45705 -25.71412,-25.622891" transform="matrix(-0.88958484,0,0,0.76888385,810.41798,77.699353)" style="fill:#fff;fill-opacity:1;stroke:#000;stroke-width:1.20913815;stroke-miterlimit:4;stroke-opacity:1;stroke-dasharray:none"/><path id="path5821-6-4" d="m 694.77197,165.19122 -76.25014,0" style="fill:none;stroke:#000;stroke-width:1;stroke-linecap:butt;stroke-linejoin:miter;stroke-miterlimit:4;stroke-opacity:1;stroke-dasharray:none"/><path id="path5819-8-0-6" d="m 130,113.79075 c -14.16593,0 -25.66378,-11.45705 -25.71412,-25.622891" transform="matrix(0.88958484,0,0,-0.76888385,502.8758,252.68309)" style="fill:#fff;fill-opacity:1;stroke:#000;stroke-width:1.20913815;stroke-miterlimit:4;stroke-opacity:1;stroke-dasharray:none"/><rect id="rect7460-01-6" width="21.074" height="27.409" x="617.103" y="112.081" style="fill:#4fb871;fill-opacity:1;stroke:#000;stroke-width:.8653127;stroke-miterlimit:4;stroke-opacity:1;stroke-dasharray:none"/><rect id="rect7460-01-0" width="21.074" height="27.409" x="638.178" y="112.081" style="fill:#4fb871;fill-opacity:1;stroke:#000;stroke-width:.8653127;stroke-miterlimit:4;stroke-opacity:1;stroke-dasharray:none"/><rect id="rect7460-01-2" width="21.074" height="27.409" x="659.252" y="112.081" style="fill:#4fb871;fill-opacity:1;stroke:#000;stroke-width:.8653127;stroke-miterlimit:4;stroke-opacity:1;stroke-dasharray:none"/><rect id="rect7460-01-4" width="21.074" height="27.409" x="680.326" y="112.081" style="fill:#4fb871;fill-opacity:1;stroke:#000;stroke-width:.8653127;stroke-miterlimit:4;stroke-opacity:1;stroke-dasharray:none"/><rect id="rect7460-01-44" width="21.074" height="27.409" x="701.4" y="112.081" style="fill:#4fb871;fill-opacity:1;stroke:#000;stroke-width:.8653127;stroke-miterlimit:4;stroke-opacity:1;stroke-dasharray:none"/><rect id="rect7460-01-1" width="21.074" height="27.409" x="111.322" y="112.081" style="fill:#68abe5;fill-opacity:1;stroke:#000;stroke-width:.8653127;stroke-miterlimit:4;stroke-opacity:1;stroke-dasharray:none"/><rect id="rect7460-01-61" width="21.074" height="27.409" x="90.248" y="112.081" style="fill:#68abe5;fill-opacity:1;stroke:#000;stroke-width:.8653127;stroke-miterlimit:4;stroke-opacity:1;stroke-dasharray:none"/><rect id="rect7460-01-19" width="21.074" height="27.409" x="69.174" y="112.081" style="fill:#68abe5;fill-opacity:1;stroke:#000;stroke-width:.8653127;stroke-miterlimit:4;stroke-opacity:1;stroke-dasharray:none"/><rect id="rect7460-01-46" width="21.074" height="27.409" x="48.099" y="112.081" style="fill:#68abe5;fill-opacity:1;stroke:#000;stroke-width:.8653127;stroke-miterlimit:4;stroke-opacity:1;stroke-dasharray:none"/><path id="path5819-46" d="m 130,113.79075 c -14.16593,0 -25.66378,-11.45705 -25.71412,-25.622891" transform="matrix(0.74651321,0,0,0.76888385,182.97573,77.699353)" style="fill:#fff;fill-opacity:1;stroke:#000;stroke-width:1.31992996;stroke-miterlimit:4;stroke-opacity:1;stroke-dasharray:none"/><path id="path5821-2" d="m 280.02246,165.19122 63.98684,0" style="fill:none;stroke:#000;stroke-width:1;stroke-linecap:butt;stroke-linejoin:miter;stroke-miterlimit:4;stroke-opacity:1;stroke-dasharray:none"/><path id="path5819-8-5" d="m 130,113.79075 c -14.16593,0 -25.66378,-11.45705 -25.71412,-25.622891" transform="matrix(-0.74651321,0,0,-0.76888385,441.056,252.68309)" style="fill:#fff;fill-opacity:1;stroke:#000;stroke-width:1.31992996;stroke-miterlimit:4;stroke-opacity:1;stroke-dasharray:none"/><path id="path5819-7-9" d="m 130,113.79075 c -14.16593,0 -25.66378,-11.45705 -25.71412,-25.622891" transform="matrix(-0.74651321,0,0,0.76888385,543.43471,77.699353)" style="fill:#fff;fill-opacity:1;stroke:#000;stroke-width:1.31992996;stroke-miterlimit:4;stroke-opacity:1;stroke-dasharray:none"/><path id="path5821-6-1" d="m 446.38801,165.19122 -63.98685,0" style="fill:none;stroke:#000;stroke-width:1;stroke-linecap:butt;stroke-linejoin:miter;stroke-miterlimit:4;stroke-opacity:1;stroke-dasharray:none"/><path id="path5819-8-0-8" d="m 130,113.79075 c -14.16593,0 -25.66378,-11.45705 -25.71412,-25.622891" transform="matrix(0.74651321,0,0,-0.76888385,285.35444,252.68309)" style="fill:#fff;fill-opacity:1;stroke:#000;stroke-width:1.31992996;stroke-miterlimit:4;stroke-opacity:1;stroke-dasharray:none"/><text id="text7868" x="128.113" y="158.279" xml:space="preserve" style="font-size:14px;font-style:normal;font-weight:400;fill:#000;fill-opacity:1;stroke:none;font-family:Bitstream Vera Sans"><tspan id="tspan7870" x="128.113" y="158.279">10 bits</tspan></text><text id="text7868-1" x="338.856" y="158.279" xml:space="preserve" style="font-size:14px;font-style:normal;font-weight:400;fill:#000;fill-opacity:1;stroke:none;font-family:Bitstream Vera Sans"><tspan id="tspan7870-4" x="338.856" y="158.279">10 bits</tspan></text><text id="text7868-18" x="571.297" y="158.279" xml:space="preserve" style="font-size:14px;font-style:normal;font-weight:400;fill:#000;fill-opacity:1;stroke:none;font-family:Bitstream Vera Sans"><tspan id="tspan7870-9" x="571.297" y="158.279">12 bits</tspan></text><text id="text7908" x="11.782" y="242.702" xml:space="preserve" style="font-size:16px;font-style:normal;font-variant:normal;font-weight:400;font-stretch:normal;text-align:start;line-height:125%;writing-mode:lr-tb;text-anchor:start;fill:#000;fill-opacity:1;stroke:none;font-family:FreeMono;-inkscape-font-specification:FreeMono"><tspan id="tspan7910" x="11.782" y="242.702">0x000</tspan></text><text id="text7912" x="11.926" y="278.966" xml:space="preserve" style="font-size:16px;font-style:normal;font-variant:normal;font-weight:400;font-stretch:normal;text-align:start;line-height:125%;writing-mode:lr-tb;text-anchor:start;fill:#000;fill-opacity:1;stroke:none;font-family:FreeMono;-inkscape-font-specification:FreeMono"><tspan id="tspan7916" x="11.926" y="278.966">0x002</tspan></text><text id="text7932" x="11.254" y="483.179" xml:space="preserve" style="font-size:16px;font-style:normal;font-variant:normal;font-weight:400;font-stretch:normal;text-align:start;line-height:125%;writing-mode:lr-tb;text-anchor:start;fill:#000;fill-opacity:1;stroke:none;font-family:FreeMono;-inkscape-font-specification:FreeMono"><tspan id="tspan7934" x="11.254" y="483.179">0x3FF</tspan></text><path id="path7936" d="m 151.54933,184.18828 -142.2659446,0 0,117.2306" style="fill:none;stroke:#000;stroke-width:1;stroke-linecap:butt;stroke-linejoin:miter;stroke-miterlimit:4;stroke-opacity:1;stroke-dasharray:none;marker-start:none;marker-end:url(#Arrow1Lend)"/><text id="text8318" x="265.35" y="341.716" xml:space="preserve" style="font-size:16px;font-style:normal;font-variant:normal;font-weight:400;font-stretch:normal;text-align:start;line-height:125%;writing-mode:lr-tb;text-anchor:start;fill:#000;fill-opacity:1;stroke:none;font-family:FreeMono;-inkscape-font-specification:FreeMono"><tspan id="tspan8320" x="265.35" y="341.716">0x000</tspan></text><text id="text8322" x="264.982" y="454.793" xml:space="preserve" style="font-size:16px;font-style:normal;font-variant:normal;font-weight:400;font-stretch:normal;text-align:start;line-height:125%;writing-mode:lr-tb;text-anchor:start;fill:#000;fill-opacity:1;stroke:none;font-family:FreeMono;-inkscape-font-specification:FreeMono"><tspan id="tspan8326" x="264.982" y="454.793">0x006</tspan></text><text id="text8330" x="264.822" y="580.073" xml:space="preserve" style="font-size:16px;font-style:normal;font-variant:normal;font-weight:400;font-stretch:normal;text-align:start;line-height:125%;writing-mode:lr-tb;text-anchor:start;fill:#000;fill-opacity:1;stroke:none;font-family:FreeMono;-inkscape-font-specification:FreeMono"><tspan id="tspan8332" x="264.822" y="580.073">0x3FF</tspan></text><path id="path8334" d="m 595.64694,184.89225 0,213.12714" style="fill:none;stroke:#000;stroke-width:1;stroke-linecap:butt;stroke-linejoin:miter;stroke-miterlimit:4;stroke-opacity:1;stroke-dasharray:none;marker-end:url(#Arrow2Lend)"/><path id="path5819-4-3" d="m 130,113.79075 c -14.16593,0 -25.66378,-11.45705 -25.71412,-25.622891" transform="matrix(-2.4279012,0,0,-0.93996033,972.17601,173.36786)" style="fill:#fff;fill-opacity:1;stroke:#000;stroke-width:.66195691;stroke-miterlimit:4;stroke-opacity:1;stroke-dasharray:none"/><path id="path5821-8-7" d="m 656.54882,66.409063 -208.1058,0" style="fill:none;stroke:#000;stroke-width:1;stroke-linecap:butt;stroke-linejoin:miter;stroke-miterlimit:4;stroke-opacity:1;stroke-dasharray:none"/><path id="path5819-8-3-3" d="m 130,113.79075 c -14.16593,0 -25.66378,-11.45705 -25.71412,-25.622891" transform="matrix(2.4279012,0,0,0.93996033,132.81592,-40.549726)" style="fill:#fff;fill-opacity:1;stroke:#000;stroke-width:.66195691;stroke-miterlimit:4;stroke-opacity:1;stroke-dasharray:none"/><path id="path5819-7-6-5" d="m 130,113.79075 c -14.16593,0 -25.66378,-11.45705 -25.71412,-25.622891" transform="matrix(2.4279012,0,0,-0.93996033,-200.15259,173.36786)" style="fill:#fff;fill-opacity:1;stroke:#000;stroke-width:.66195691;stroke-miterlimit:4;stroke-opacity:1;stroke-dasharray:none"/><path id="path5821-6-4-7" d="m 115.47452,66.409063 208.10583,0" style="fill:none;stroke:#000;stroke-width:1;stroke-linecap:butt;stroke-linejoin:miter;stroke-miterlimit:4;stroke-opacity:1;stroke-dasharray:none"/><path id="path5819-8-0-6-5" d="m 130,113.79075 c -14.16593,0 -25.66378,-11.45705 -25.71412,-25.622891" transform="matrix(-2.4279012,0,0,0.93996033,639.20751,-40.549726)" style="fill:#fff;fill-opacity:1;stroke:#000;stroke-width:.66195691;stroke-miterlimit:4;stroke-opacity:1;stroke-dasharray:none"/><text id="text8376" x="341.574" y="28.408" xml:space="preserve" style="font-size:14px;font-style:normal;font-weight:400;fill:#000;fill-opacity:1;stroke:none;font-family:Bitstream Vera Sans"><tspan id="tspan8378" x="341.574" y="28.408">0x00806231</tspan></text><text id="text8380" x="130.31" y="98.23" xml:space="preserve" style="font-size:14px;font-style:normal;font-weight:400;fill:#000;fill-opacity:1;stroke:none;font-family:Bitstream Vera Sans"><tspan id="tspan8384" x="130.31" y="98.23">0x002</tspan></text><text id="text8388" x="340.442" y="97.179" xml:space="preserve" style="font-size:14px;font-style:normal;font-weight:400;fill:#000;fill-opacity:1;stroke:none;font-family:Bitstream Vera Sans"><tspan id="tspan8390" x="340.442" y="97.179">0x006</tspan></text><text id="text8392" x="573.726" y="98.128" xml:space="preserve" style="font-size:14px;font-style:normal;font-weight:400;fill:#000;fill-opacity:1;stroke:none;font-family:Bitstream Vera Sans"><tspan id="tspan8394" x="573.726" y="98.128">0x231</tspan></text><path id="path8594" d="m 362.63539,184.65052 -110.08788,0 0,264.1336" style="fill:none;stroke:#000;stroke-width:1;stroke-linecap:butt;stroke-linejoin:miter;stroke-miterlimit:4;stroke-opacity:1;stroke-dasharray:none;marker-start:none;marker-end:url(#Arrow1Lend)"/></g></svg>